<?xml version="1.0" encoding="UTF-8" standalone="no" ?>
<!DOCTYPE svg PUBLIC "-//W3C//DTD SVG 1.1//EN" "http://www.w3.org/Graphics/SVG/1.1/DTD/svg11.dtd">
<svg xmlns="http://www.w3.org/2000/svg" xmlns:xlink="http://www.w3.org/1999/xlink" version="1.1" width="1280" height="1024" viewBox="0 0 1280 1024" xml:space="preserve">
<desc>Created with Fabric.js 3.1.0</desc>
<defs>
</defs>
<g transform="matrix(1.9692780337941629 0 0 1.9692780337941629 640.0153846153846 512.012312418764)" id="background-logo"  >
<rect style="stroke: none; stroke-width: 1; stroke-dasharray: none; stroke-linecap: butt; stroke-dashoffset: 0; stroke-linejoin: miter; stroke-miterlimit: 4; fill: rgb(255,255,255); fill-rule: nonzero; opacity: 1;"  paint-order="stroke"  x="-325" y="-260" rx="0" ry="0" width="650" height="520" />
</g>
<g transform="matrix(1.9692780337941629 0 0 1.9692780337941629 654.0693148341745 664.0451095827975)" id="text-logo-path"  >
<path style="stroke: none; stroke-width: 0; stroke-dasharray: none; stroke-linecap: butt; stroke-dashoffset: 0; stroke-linejoin: miter; stroke-miterlimit: 4; fill: rgb(60,68,108); fill-rule: nonzero; opacity: 1;"  paint-order="stroke"  transform=" translate(-219.855, 13.254999999999999)" d="M 0.55 0.44 Q -1.5 -1.6 -1.5 -4.34 Q -1.5 -7.08 -0.2 -9.45 Q 1.09 -11.81 3.5 -13.84 Q 5.92 -15.87 9.83 -17.19 Q 13.74 -18.51 18.46 -18.66 L 18.46 -18.66 Q 21.23 -25.47 23.36 -33.9 L 23.36 -33.9 Q 23.41 -34.2 23.41 -34.7 Q 23.41 -35.19 22.88 -35.57 L 22.88 -35.57 L 22.88 -36.08 Q 27.35 -36.92 31.05 -36.92 L 31.05 -36.92 L 34.18 -36.71 Q 35.52 -34.33 35.67 -30.09 Q 35.83 -25.85 35.88 -15.39 L 35.88 -15.39 Q 41.49 -12.95 45.5 -9.19 L 45.5 -9.19 Q 45.3 -8.51 44.7 -7.87 Q 44.1 -7.24 43.57 -6.91 L 43.57 -6.91 L 43.06 -6.6 Q 39.99 -9.62 35.93 -11.76 L 35.93 -11.76 Q 36.03 -8.79 36.51 -6.75 L 36.51 -6.75 Q 37.25 -3.43 38.21 -3.43 L 38.21 -3.43 Q 38.8 -3.43 39.58 -3.68 L 39.58 -3.68 L 40.35 -1.68 Q 36.77 0.61 33.49 0.63 L 33.49 0.63 Q 28.08 0.63 28.08 -7.54 L 28.08 -7.54 L 28.08 -14.35 Q 24.45 -15.23 21.48 -15.44 L 21.48 -15.44 Q 14.7 2.49 5.71 2.49 L 5.71 2.49 Q 2.59 2.49 0.55 0.44 Z M 7.38 -11.39 Q 3.48 -7.74 3.48 -4.57 Q 3.48 -1.4 5.92 -1.4 L 5.92 -1.4 Q 10.92 -1.4 17.16 -15.49 L 17.16 -15.49 Q 11.27 -15.03 7.38 -11.39 Z M 22.62 -18.56 L 22.62 -18.56 Q 25.16 -18.41 28.08 -17.82 L 28.08 -17.82 Q 28.08 -30.62 27.5 -32.75 L 27.5 -32.75 Q 27.4 -32.8 27.09 -32.8 Q 26.79 -32.8 26.69 -32.75 L 26.69 -32.75 Q 26.23 -28.79 22.62 -18.56 Z M 42.73 0.15 L 41.74 0.15 Q 41.74 -2.29 43.23 -9.2 Q 44.71 -16.12 44.71 -17.06 L 44.71 -17.06 Q 44.71 -18.79 43.24 -20.69 L 43.24 -20.69 L 42.78 -21.33 L 42.83 -21.99 Q 45.65 -22.78 51.82 -22.78 L 51.82 -22.78 Q 52.51 -21.89 52.56 -19.55 L 52.56 -19.55 Q 57.08 -23.03 60.2 -23.03 L 60.2 -23.03 Q 62.08 -23.03 63.2 -21.73 Q 64.31 -20.44 64.31 -18.48 Q 64.31 -16.53 63.11 -11.74 Q 61.9 -6.96 61.9 -5.32 Q 61.9 -3.68 62.33 -3.68 L 62.33 -3.68 Q 62.64 -3.68 64.52 -4.67 L 64.52 -4.67 L 65.13 -5 L 66.07 -3.17 Q 65.61 -2.77 64.82 -2.13 Q 64.04 -1.5 61.94 -0.43 Q 59.85 0.63 58.17 0.63 L 58.17 0.63 Q 54.36 0.63 54.36 -3.68 L 54.36 -3.68 Q 54.36 -5.51 55.54 -10.4 Q 56.72 -15.29 56.72 -16.69 Q 56.72 -18.1 55.83 -18.1 L 55.83 -18.1 Q 54.34 -18.1 52.13 -16.81 L 52.13 -16.81 Q 51.97 -15.92 51.09 -12.11 L 51.09 -12.11 Q 49.26 -3.94 49.28 -0.58 L 49.28 -0.58 Q 47.46 0.15 42.73 0.15 L 42.73 0.15 Z M 58.98 8.73 L 58.07 7.74 L 59.21 6.09 Q 61.75 7.59 62.99 7.59 L 62.99 7.59 Q 64.97 7.59 66.54 4.84 Q 68.1 2.08 69.44 -6.11 Q 70.79 -14.29 70.79 -17.32 L 70.79 -17.32 Q 70.79 -18.51 69.29 -20.59 L 69.29 -20.59 L 68.81 -21.33 L 68.86 -21.99 Q 71.83 -22.78 77.82 -22.78 L 77.82 -22.78 Q 78.51 -22.01 78.51 -19.96 L 78.51 -19.96 Q 78.51 -17.85 77.21 -10.08 L 77.21 -10.08 Q 75.94 -2.39 75.08 0.99 Q 74.22 4.37 73.29 6.32 Q 72.36 8.28 70.36 9.97 Q 68.35 11.65 66.09 11.65 Q 63.83 11.65 61.9 10.66 Q 59.97 9.67 58.98 8.73 L 58.98 8.73 Z M 72.67 -28.46 Q 71.63 -29.48 71.63 -31.19 Q 71.63 -32.91 73.06 -34.21 Q 74.5 -35.52 76.36 -35.52 Q 78.23 -35.52 79.27 -34.48 Q 80.31 -33.44 80.31 -31.75 Q 80.31 -30.06 78.83 -28.75 Q 77.34 -27.45 75.52 -27.45 Q 73.71 -27.45 72.67 -28.46 Z M 81.15 -8 L 81.15 -8 Q 81.15 -14.96 84 -18.99 Q 86.86 -23.03 90.92 -23.03 L 90.92 -23.03 Q 93.84 -23.03 96.54 -21.53 L 96.54 -21.53 Q 96.64 -21.63 97.09 -22.88 L 97.09 -22.88 Q 99.53 -22.88 103.64 -21.43 L 103.64 -21.43 Q 102.35 -17.11 101.58 -12.4 Q 100.8 -7.69 100.8 -5.69 Q 100.8 -3.68 101.21 -3.68 L 101.21 -3.68 Q 101.51 -3.68 103.49 -4.67 L 103.49 -4.67 L 104.13 -5 L 105.07 -3.17 Q 104.61 -2.77 103.85 -2.13 Q 103.09 -1.5 101 -0.43 Q 98.92 0.63 97.25 0.63 L 97.25 0.63 Q 94.02 0.63 93.51 -2.29 L 93.51 -2.29 Q 90.19 0.63 87.51 0.63 Q 84.83 0.63 82.99 -1.45 Q 81.15 -3.53 81.15 -8 Z M 90 -16.3 Q 88.66 -12.64 88.66 -8.23 Q 88.66 -3.81 90.59 -3.81 L 90.59 -3.81 Q 91.84 -3.81 93.41 -4.77 L 93.41 -4.77 Q 93.77 -12.11 95.85 -19.3 L 95.85 -19.3 Q 94.35 -19.96 93.29 -19.96 L 93.29 -19.96 Q 93.23 -19.96 93.21 -19.96 L 93.21 -19.96 Q 91.33 -19.96 90 -16.3 Z M 107.06 -0.57 Q 105.88 -1.78 105.88 -3.94 Q 105.88 -6.09 108.46 -17.71 Q 111.03 -29.33 111.03 -34.48 L 111.03 -34.48 L 110.73 -36.77 Q 114.79 -38.16 118.32 -38.16 L 118.32 -38.16 Q 118.83 -37.43 118.83 -35.62 L 118.83 -35.62 Q 118.83 -31.46 116.2 -19.53 Q 113.57 -7.59 113.57 -5.64 Q 113.57 -3.68 114.05 -3.68 L 114.05 -3.68 L 117.69 -5 L 118.63 -3.17 Q 116.85 -1.78 114.33 -0.57 Q 111.82 0.63 110.03 0.63 Q 108.24 0.63 107.06 -0.57 Z M 121.16 -0.48 Q 120.12 -1.6 120.12 -3.5 Q 120.12 -5.41 121.42 -10.27 Q 122.71 -15.13 122.71 -16.58 L 122.71 -16.58 Q 122.71 -18.76 121.37 -20.69 L 121.37 -20.69 L 120.88 -21.33 L 120.94 -21.99 Q 123.7 -22.78 129.9 -22.78 L 129.9 -22.78 Q 130.58 -22.01 130.58 -19.88 L 130.58 -19.88 Q 130.58 -17.67 129.16 -12.29 L 129.16 -12.29 Q 127.77 -6.96 127.77 -5.32 Q 127.77 -3.68 128.22 -3.68 L 128.22 -3.68 Q 128.53 -3.68 130.61 -4.67 L 130.61 -4.67 L 131.24 -5 L 132.13 -3.17 Q 131.68 -2.77 130.89 -2.13 Q 130.1 -1.5 127.97 -0.43 Q 125.84 0.63 124.02 0.63 Q 122.21 0.63 121.16 -0.48 Z M 124.64 -28.46 Q 123.6 -29.48 123.6 -31.19 Q 123.6 -32.91 125.04 -34.21 Q 126.47 -35.52 128.34 -35.52 Q 130.2 -35.52 131.24 -34.48 Q 132.29 -33.44 132.29 -31.75 Q 132.29 -30.06 130.8 -28.75 Q 129.31 -27.45 127.5 -27.45 Q 125.68 -27.45 124.64 -28.46 Z M 143.32 0.44 Q 141.27 -1.6 141.27 -4.34 Q 141.27 -7.08 142.57 -9.45 Q 143.86 -11.81 146.28 -13.84 Q 148.69 -15.87 152.6 -17.19 Q 156.51 -18.51 161.23 -18.66 L 161.23 -18.66 Q 164 -25.47 166.13 -33.9 L 166.13 -33.9 Q 166.18 -34.2 166.18 -34.7 Q 166.18 -35.19 165.65 -35.57 L 165.65 -35.57 L 165.65 -36.08 Q 170.12 -36.92 173.82 -36.92 L 173.82 -36.92 L 176.95 -36.71 Q 178.29 -34.33 178.45 -30.09 Q 178.6 -25.85 178.65 -15.39 L 178.65 -15.39 Q 184.26 -12.95 188.27 -9.19 L 188.27 -9.19 Q 188.07 -8.51 187.47 -7.87 Q 186.88 -7.24 186.34 -6.91 L 186.34 -6.91 L 185.83 -6.6 Q 182.76 -9.62 178.7 -11.76 L 178.7 -11.76 Q 178.8 -8.79 179.28 -6.75 L 179.28 -6.75 Q 180.02 -3.43 180.98 -3.43 L 180.98 -3.43 Q 181.57 -3.43 182.36 -3.68 L 182.36 -3.68 L 183.12 -1.68 Q 179.54 0.61 176.26 0.63 L 176.26 0.63 Q 170.85 0.63 170.85 -7.54 L 170.85 -7.54 L 170.85 -14.35 Q 167.22 -15.23 164.25 -15.44 L 164.25 -15.44 Q 157.47 2.49 148.48 2.49 L 148.48 2.49 Q 145.36 2.49 143.32 0.44 Z M 150.15 -11.39 Q 146.25 -7.74 146.25 -4.57 Q 146.25 -1.4 148.69 -1.4 L 148.69 -1.4 Q 153.69 -1.4 159.94 -15.49 L 159.94 -15.49 Q 154.04 -15.03 150.15 -11.39 Z M 165.39 -18.56 L 165.39 -18.56 Q 167.93 -18.41 170.85 -17.82 L 170.85 -17.82 Q 170.85 -30.62 170.27 -32.75 L 170.27 -32.75 Q 170.17 -32.8 169.86 -32.8 Q 169.56 -32.8 169.46 -32.75 L 169.46 -32.75 Q 169 -28.79 165.39 -18.56 Z M 184.77 0.15 Q 184.67 -0.25 184.67 -1.74 Q 184.67 -3.22 186.08 -9.72 Q 187.48 -16.22 187.48 -17.16 L 187.48 -17.16 Q 187.48 -18.76 186.01 -20.69 L 186.01 -20.69 L 185.55 -21.33 L 185.61 -21.99 Q 188.42 -22.78 194.59 -22.78 L 194.59 -22.78 Q 195.23 -21.43 195.23 -18.99 L 195.23 -18.99 Q 195.81 -19.93 197.63 -21.48 Q 199.44 -23.03 201.35 -23.03 L 201.35 -23.03 Q 204.17 -23.03 204.17 -18.15 L 204.17 -18.15 Q 203.91 -17.85 203.47 -17.35 Q 203.02 -16.86 201.69 -15.97 Q 200.36 -15.08 199.11 -14.88 L 199.11 -14.88 Q 199.06 -14.88 198.24 -16.28 Q 197.41 -17.67 196.98 -17.67 L 196.98 -17.67 Q 195.69 -17.21 194.7 -16.12 L 194.7 -16.12 Q 192.31 -5.36 192.31 -2.18 L 192.31 -2.18 Q 192.31 -1.04 192.36 -0.58 L 192.36 -0.58 Q 190.53 0.15 185.12 0.15 L 185.12 0.15 L 184.77 0.15 Z M 204.62 -18.99 Q 204.52 -19.63 204.52 -20.68 Q 204.52 -21.73 204.67 -22.42 L 204.67 -22.42 L 207.95 -22.42 Q 208.36 -25.24 208.36 -27.73 L 208.36 -27.73 L 208.3 -29.33 L 208.3 -29.48 Q 212.37 -30.88 215.95 -30.9 L 215.95 -30.9 Q 216.18 -29.78 216.18 -28.26 L 216.18 -28.26 Q 216.18 -26.69 215.29 -22.42 L 215.29 -22.42 L 220.31 -22.42 Q 220.21 -21.13 219.45 -19.4 L 219.45 -19.4 Q 217.47 -19.6 215.69 -19.6 L 215.69 -19.6 L 214.75 -19.6 Q 212.37 -8 212.37 -5.15 L 212.37 -5.15 Q 212.37 -3.63 213.03 -3.63 Q 213.69 -3.63 216.48 -4.95 L 216.48 -4.95 L 217.42 -3.22 Q 212.8 0.63 208.84 0.63 L 208.84 0.63 Q 207.01 0.63 205.84 -0.52 Q 204.67 -1.68 204.67 -3.57 Q 204.67 -5.46 205.12 -7.85 Q 205.56 -10.23 206.34 -13.7 Q 207.11 -17.16 207.49 -19.3 L 207.49 -19.3 Q 205.56 -19.14 204.62 -18.99 L 204.62 -18.99 Z M 217.98 -3.68 L 217.98 -3.68 Q 217.98 -4.42 219.81 -6.06 Q 221.63 -7.69 222.88 -8.05 L 222.88 -8.05 Q 225.47 -6.12 227.14 -1.98 L 227.14 -1.98 Q 229.05 -2.13 229.05 -3.76 L 229.05 -3.76 Q 229.05 -6.2 224.85 -10.59 Q 220.64 -14.98 220.64 -17.58 Q 220.64 -20.19 222.98 -21.61 Q 225.32 -23.03 228.62 -23.03 Q 231.92 -23.03 233.58 -21.86 Q 235.24 -20.69 235.24 -18.69 Q 235.24 -16.68 232.07 -13.15 L 232.07 -13.15 Q 232.43 -12.8 233.01 -12.2 Q 233.59 -11.6 234.52 -9.93 Q 235.45 -8.25 235.45 -6.8 L 235.45 -6.8 Q 235.45 -3.53 232.57 -1.45 Q 229.68 0.63 225.99 0.63 Q 222.29 0.63 220.14 -0.93 Q 217.98 -2.49 217.98 -3.68 Z M 227.4 -18.87 L 227.4 -18.87 Q 227.4 -17.72 229.68 -15.64 L 229.68 -15.64 L 230.47 -14.98 Q 232.65 -16.86 232.65 -18.67 Q 232.65 -20.49 230.14 -20.49 L 230.14 -20.49 Q 228.95 -20.49 228.17 -20 Q 227.4 -19.5 227.4 -18.87 Z M 247.22 0.44 Q 245.17 -1.6 245.17 -4.34 Q 245.17 -7.08 246.47 -9.45 Q 247.76 -11.81 250.17 -13.84 Q 252.59 -15.87 256.5 -17.19 Q 260.41 -18.51 265.13 -18.66 L 265.13 -18.66 Q 267.9 -25.47 270.03 -33.9 L 270.03 -33.9 Q 270.08 -34.2 270.08 -34.7 Q 270.08 -35.19 269.55 -35.57 L 269.55 -35.57 L 269.55 -36.08 Q 274.02 -36.92 277.72 -36.92 L 277.72 -36.92 L 280.85 -36.71 Q 282.19 -34.33 282.34 -30.09 Q 282.5 -25.85 282.55 -15.39 L 282.55 -15.39 Q 288.16 -12.95 292.17 -9.19 L 292.17 -9.19 Q 291.97 -8.51 291.37 -7.87 Q 290.77 -7.24 290.24 -6.91 L 290.24 -6.91 L 289.73 -6.6 Q 286.66 -9.62 282.6 -11.76 L 282.6 -11.76 Q 282.7 -8.79 283.18 -6.75 L 283.18 -6.75 Q 283.92 -3.43 284.88 -3.43 L 284.88 -3.43 Q 285.47 -3.43 286.25 -3.68 L 286.25 -3.68 L 287.02 -1.68 Q 283.44 0.61 280.16 0.63 L 280.16 0.63 Q 274.75 0.63 274.75 -7.54 L 274.75 -7.54 L 274.75 -14.35 Q 271.12 -15.23 268.15 -15.44 L 268.15 -15.44 Q 261.37 2.49 252.38 2.49 L 252.38 2.49 Q 249.26 2.49 247.22 0.44 Z M 254.05 -11.39 Q 250.15 -7.74 250.15 -4.57 Q 250.15 -1.4 252.59 -1.4 L 252.59 -1.4 Q 257.59 -1.4 263.83 -15.49 L 263.83 -15.49 Q 257.94 -15.03 254.05 -11.39 Z M 269.29 -18.56 L 269.29 -18.56 Q 271.83 -18.41 274.75 -17.82 L 274.75 -17.82 Q 274.75 -30.62 274.17 -32.75 L 274.17 -32.75 Q 274.07 -32.8 273.76 -32.8 Q 273.46 -32.8 273.36 -32.75 L 273.36 -32.75 Q 272.9 -28.79 269.29 -18.56 Z M 287.78 -9.14 L 287.78 -9.14 Q 287.78 -15.34 291.19 -19.18 Q 294.61 -23.03 299.94 -23.03 L 299.94 -23.03 Q 303.42 -23.03 305.47 -21.44 Q 307.53 -19.86 307.53 -17.54 Q 307.53 -15.23 306.08 -13.58 L 306.08 -13.58 Q 304.79 -13.58 303.08 -14.16 Q 301.36 -14.73 300.47 -15.54 L 300.47 -15.54 L 301.26 -20.13 Q 300.78 -20.44 299.94 -20.44 L 299.94 -20.44 Q 297.86 -20.44 296.61 -16.97 Q 295.37 -13.51 295.37 -9.57 L 295.37 -9.57 Q 295.37 -3.33 299.23 -3.33 L 299.23 -3.33 Q 300.47 -3.33 301.88 -3.92 Q 303.29 -4.52 304.1 -5.1 L 304.1 -5.1 L 304.89 -5.71 L 306.08 -4.11 Q 305.68 -3.53 304.42 -2.6 Q 303.16 -1.68 302.07 -1.04 Q 300.98 -0.41 299.27 0.11 Q 297.55 0.63 295.9 0.63 L 295.9 0.63 Q 291.84 0.63 289.81 -2.02 Q 287.78 -4.67 287.78 -9.14 Z M 308.75 -8 L 308.75 -8 Q 308.75 -14.96 311.61 -18.99 Q 314.46 -23.03 318.53 -23.03 L 318.53 -23.03 Q 321.45 -23.03 324.14 -21.53 L 324.14 -21.53 Q 324.24 -21.63 324.7 -22.88 L 324.7 -22.88 Q 327.13 -22.88 331.25 -21.43 L 331.25 -21.43 Q 329.95 -17.11 329.18 -12.4 Q 328.4 -7.69 328.4 -5.69 Q 328.4 -3.68 328.81 -3.68 L 328.81 -3.68 Q 329.11 -3.68 331.09 -4.67 L 331.09 -4.67 L 331.73 -5 L 332.67 -3.17 Q 332.21 -2.77 331.45 -2.13 Q 330.69 -1.5 328.61 -0.43 Q 326.52 0.63 324.85 0.63 L 324.85 0.63 Q 321.62 0.63 321.12 -2.29 L 321.12 -2.29 Q 317.79 0.63 315.11 0.63 Q 312.43 0.63 310.59 -1.45 Q 308.75 -3.53 308.75 -8 Z M 317.6 -16.3 Q 316.27 -12.64 316.27 -8.23 Q 316.27 -3.81 318.2 -3.81 L 318.2 -3.81 Q 319.44 -3.81 321.01 -4.77 L 321.01 -4.77 Q 321.37 -12.11 323.45 -19.3 L 323.45 -19.3 Q 321.95 -19.96 320.89 -19.96 L 320.89 -19.96 Q 320.84 -19.96 320.81 -19.96 L 320.81 -19.96 Q 318.93 -19.96 317.6 -16.3 Z M 333.71 -8.33 L 333.71 -8.33 Q 333.71 -15.18 336.62 -19.11 Q 339.52 -23.03 343.19 -23.03 Q 346.86 -23.03 349.35 -21.38 L 349.35 -21.38 Q 350.95 -29.81 350.95 -34.63 L 350.95 -34.63 L 350.7 -36.82 Q 354.61 -38.16 358.34 -38.16 L 358.34 -38.16 Q 358.74 -37.27 358.77 -36.13 L 358.77 -36.13 Q 358.77 -32.32 356.47 -20.71 Q 354.17 -9.09 354.17 -4.95 L 354.17 -4.95 Q 354.17 -3.71 354.76 -3.68 L 354.76 -3.68 Q 355.06 -3.68 356.74 -4.67 L 356.74 -4.67 L 357.25 -5 L 358.24 -3.17 Q 353.82 0.63 350.47 0.63 Q 347.12 0.63 346.58 -2.69 L 346.58 -2.69 Q 345.03 -1.14 343.1 -0.25 Q 341.17 0.63 339.73 0.63 L 339.73 0.63 Q 337.24 0.63 335.47 -1.55 Q 333.71 -3.73 333.71 -8.33 Z M 342.56 -16.38 Q 341.22 -12.8 341.22 -9.28 Q 341.22 -5.76 341.72 -4.79 Q 342.21 -3.81 343.21 -3.81 L 343.21 -3.81 Q 344.93 -3.81 346.58 -5.21 L 346.58 -5.21 Q 346.73 -7.29 348.94 -19.04 L 348.94 -19.04 Q 347.17 -19.96 345.72 -19.96 L 345.72 -19.96 Q 343.89 -19.96 342.56 -16.38 Z M 359.48 -8.99 L 359.48 -8.99 Q 359.48 -15.49 363.4 -19.26 Q 367.33 -23.03 372.33 -23.03 L 372.33 -23.03 Q 375.4 -23.03 377.38 -21.52 Q 379.36 -20.01 379.36 -17.49 Q 379.36 -14.98 378.08 -13.27 Q 376.8 -11.55 374.99 -10.61 L 374.99 -10.61 Q 371.31 -8.79 368.21 -8.33 L 368.21 -8.33 L 366.97 -8.18 Q 367.33 -3.28 370.98 -3.28 L 370.98 -3.28 Q 372.23 -3.28 373.64 -3.9 Q 375.04 -4.52 375.81 -5.15 L 375.81 -5.15 L 376.59 -5.76 L 377.84 -4.11 Q 377.43 -3.53 376.19 -2.6 Q 374.94 -1.68 373.83 -1.04 L 373.83 -1.04 Q 370.8 0.63 367.22 0.63 Q 363.64 0.63 361.56 -1.92 Q 359.48 -4.47 359.48 -8.99 Z M 366.92 -10.71 L 366.92 -10.71 Q 369.59 -11.17 371.13 -12.95 Q 372.68 -14.73 372.68 -17.53 Q 372.68 -20.34 371.03 -20.34 L 371.03 -20.34 Q 369.05 -20.34 367.99 -16.99 Q 366.92 -13.63 366.92 -10.71 Z M 381.85 0.15 L 380.86 0.15 Q 380.86 -2.29 382.34 -9.2 Q 383.83 -16.12 383.83 -17.06 L 383.83 -17.06 Q 383.83 -18.79 382.36 -20.69 L 382.36 -20.69 L 381.9 -21.33 L 381.95 -21.99 Q 384.77 -22.78 390.94 -22.78 L 390.94 -22.78 Q 391.68 -21.79 391.68 -19.55 L 391.68 -19.55 Q 396.35 -23.03 399.12 -23.03 L 399.12 -23.03 Q 402.59 -23.03 403.2 -19.45 L 403.2 -19.45 Q 404.6 -20.59 406.87 -21.81 Q 409.14 -23.03 410.93 -23.03 Q 412.72 -23.03 413.92 -21.86 Q 415.11 -20.69 415.11 -18.61 Q 415.11 -16.53 413.97 -11.74 Q 412.83 -6.96 412.83 -5.32 Q 412.83 -3.68 413.31 -3.68 L 413.31 -3.68 Q 413.61 -3.68 415.44 -4.67 L 415.44 -4.67 L 416 -5 L 416.94 -3.17 Q 415.59 -1.83 413.28 -0.6 Q 410.97 0.63 409.2 0.63 L 409.2 0.63 Q 405.29 0.63 405.29 -3.81 L 405.29 -3.81 Q 405.29 -5.41 406.4 -10.27 Q 407.52 -15.13 407.52 -16.62 Q 407.52 -18.1 406.66 -18.1 L 406.66 -18.1 Q 405.16 -18.1 403.2 -16.96 L 403.2 -16.96 Q 403.1 -15.92 401.78 -9.89 Q 400.46 -3.86 400.46 -0.51 L 400.46 -0.51 Q 399.01 0.15 393.78 0.15 L 393.78 0.15 Q 393.58 0.15 393.38 0.15 L 393.38 0.15 Q 393.28 -0.43 393.28 -2.6 Q 393.28 -4.77 394.51 -10.03 Q 395.74 -15.29 395.74 -16.69 Q 395.74 -18.1 394.75 -18.1 L 394.75 -18.1 Q 393.2 -18.1 391.29 -16.86 L 391.29 -16.86 Q 391.19 -16.4 390.28 -12.26 L 390.28 -12.26 Q 388.4 -4.04 388.4 -0.58 L 388.4 -0.58 Q 386.57 0.15 381.85 0.15 L 381.85 0.15 Z M 418.82 -4.57 L 418.82 -4.57 Q 418.82 -5.71 419.86 -11.17 Q 420.9 -16.63 420.9 -20.29 L 420.9 -20.29 Q 420.9 -21.07 420.67 -21.73 L 420.67 -21.73 Q 423.49 -22.83 428.37 -22.83 L 428.37 -22.83 Q 428.64 -22.06 428.64 -20.29 L 428.64 -20.29 Q 428.64 -18.51 427.5 -13.25 L 427.5 -13.25 Q 426.36 -7.95 426.36 -6.33 Q 426.36 -4.72 427.17 -4.72 L 427.17 -4.72 Q 429.46 -4.72 431.59 -6.35 L 431.59 -6.35 Q 431.74 -8.28 433.67 -21.99 L 433.67 -21.99 Q 435.5 -22.72 440.22 -22.72 L 440.22 -22.72 L 441.21 -22.72 Q 440.58 -20.29 439.16 -10.37 Q 437.73 -0.46 437.11 2.18 Q 436.49 4.82 435.42 6.86 Q 434.36 8.89 432.82 9.9 Q 431.29 10.92 429.72 11.29 Q 428.16 11.65 425.7 11.65 Q 423.24 11.65 421.03 10.07 Q 418.82 8.48 418.82 7.34 L 418.82 7.34 Q 418.82 6.6 420.66 5.09 Q 422.5 3.58 423.74 3.22 L 423.74 3.22 Q 426.38 5.87 427.65 8.99 L 427.65 8.99 Q 429 8.99 430.04 5.76 Q 431.08 2.54 431.44 -3.68 L 431.44 -3.68 Q 430.19 -2.44 427.65 -1.12 Q 425.12 0.2 423.13 0.2 L 423.13 0.2 Q 418.82 0.2 418.82 -4.57 Z" stroke-linecap="round" />
</g>
<g transform="matrix(1.9692780337941629 0 0 1.9692780337941629 647.6460837473849 782.5777461750608)" id="tagline-3cb1b17e-8e29-46b9-aa6d-3272a3273b1a-logo-path"  >
<path style="stroke: rgb(255,255,255); stroke-width: 4; stroke-dasharray: none; stroke-linecap: butt; stroke-dashoffset: 0; stroke-linejoin: miter; stroke-miterlimit: 4; fill: rgb(216,38,88); fill-rule: nonzero; opacity: 1;"  paint-order="stroke"  transform=" translate(-117.14000000000001, 6.02)" d="M 1.2 -3.26 L 1.2 -3.26 Q 1.2 -4.4 1.74 -7.28 Q 2.28 -10.16 2.4 -10.92 L 2.4 -10.92 L 1.34 -13.06 Q 3.88 -14.49 5.66 -14.5 L 5.66 -14.5 Q 6.54 -14.5 6.98 -13.9 L 6.98 -13.9 Q 8.64 -14.47 10.04 -14.48 L 10.04 -14.48 Q 12.64 -14.48 14.08 -12.79 Q 15.52 -11.1 15.52 -8.58 L 15.52 -8.58 Q 15.52 -5.26 13.08 -2.48 L 13.08 -2.48 Q 11.89 -1.14 9.97 -0.32 Q 8.04 0.5 5.84 0.5 Q 3.64 0.5 2.42 -0.47 Q 1.2 -1.45 1.2 -3.26 Z M 5.44 -2.5 L 5.44 -2.5 Q 5.86 -2.42 6.38 -2.42 L 6.38 -2.42 Q 8.55 -2.42 9.78 -3.99 Q 11 -5.56 11 -7.86 L 11 -7.86 Q 11 -9.72 10.16 -10.82 Q 9.32 -11.92 7.74 -11.92 L 7.74 -11.92 Q 7.5 -11.92 6.94 -11.84 L 6.94 -11.84 Q 6.81 -10.82 6.21 -7.29 Q 5.62 -3.76 5.44 -2.5 Z M 16.42 -4.76 L 16.42 -4.76 Q 16.42 -7.98 18.63 -9.99 Q 20.84 -12 24.18 -12 L 24.18 -12 Q 26.04 -12 27 -11.17 Q 27.96 -10.34 27.96 -8.98 L 27.96 -8.98 Q 27.96 -7.13 26.15 -5.89 Q 24.34 -4.66 20.56 -4.64 L 20.56 -4.64 Q 20.62 -3.36 21.14 -2.63 Q 21.66 -1.9 22.44 -1.9 Q 23.21 -1.9 23.78 -2.42 Q 24.36 -2.94 24.36 -4.12 L 24.36 -4.12 Q 27.28 -4.12 27.28 -2.74 L 27.28 -2.74 Q 27.28 -1.56 25.83 -0.53 Q 24.39 0.5 22.14 0.5 L 22.14 0.5 Q 19.39 0.5 17.91 -0.92 Q 16.42 -2.34 16.42 -4.76 Z M 20.74 -6.24 L 20.74 -6.24 Q 22.74 -6.4 23.75 -7.15 Q 24.76 -7.9 24.76 -8.74 L 24.76 -8.74 Q 24.76 -9.14 24.51 -9.4 Q 24.26 -9.66 23.84 -9.66 L 23.84 -9.66 Q 22.82 -9.66 21.97 -8.64 Q 21.11 -7.62 20.74 -6.24 Z M 29.45 -1.68 L 29.45 -1.68 Q 29.45 -2.78 30.43 -3.88 L 30.43 -3.88 Q 30.93 -3.17 31.94 -2.68 Q 32.95 -2.18 33.92 -2.18 L 33.92 -2.18 Q 35.58 -2.18 35.91 -3.64 L 35.91 -3.64 Q 32.87 -4 31.51 -5 Q 30.16 -6 30.16 -7.82 L 30.16 -7.82 Q 30.16 -9.26 31.1 -10.24 Q 32.05 -11.22 33.46 -11.61 Q 34.87 -12 36.64 -12 Q 38.41 -12 39.56 -11.33 Q 40.71 -10.66 40.71 -9.7 Q 40.71 -8.74 40.04 -8.22 Q 39.38 -7.7 38.58 -7.7 Q 37.79 -7.7 37.14 -8.12 Q 36.49 -8.54 36.13 -9.34 L 36.13 -9.34 Q 35.39 -9.11 34.95 -8.71 Q 34.51 -8.3 34.17 -7.54 L 34.17 -7.54 Q 37.55 -7.04 38.93 -6.1 Q 40.31 -5.16 40.31 -3.42 L 40.31 -3.42 Q 40.31 -2.31 39.69 -1.51 Q 39.07 -0.7 38.13 -0.28 L 38.13 -0.28 Q 36.3 0.5 34.51 0.5 L 34.51 0.5 Q 29.45 0.5 29.45 -1.68 Z M 43.36 -0.12 Q 42.8 -0.74 42.8 -2.01 Q 42.8 -3.28 44.08 -8.82 L 44.08 -8.82 L 42.97 -10.5 Q 45.47 -12 46.9 -12 L 46.9 -12 Q 47.72 -12 48.07 -11.65 Q 48.41 -11.3 48.41 -10.52 L 48.41 -10.52 Q 48.41 -10.21 47.67 -7 Q 46.92 -3.78 46.92 -2.4 Q 46.92 -1.02 47.54 -0.48 L 47.54 -0.48 Q 46.42 0.5 45.17 0.5 Q 43.93 0.5 43.36 -0.12 Z M 44.25 -14.78 L 44.25 -14.78 Q 44.25 -15.69 45.11 -16.22 Q 45.97 -16.74 46.92 -16.74 Q 47.88 -16.74 48.47 -16.34 Q 49.06 -15.94 49.06 -15.17 Q 49.06 -14.4 48.26 -13.85 Q 47.46 -13.3 46.44 -13.3 Q 45.42 -13.3 44.83 -13.7 Q 44.25 -14.1 44.25 -14.78 Z M 50.25 -5.04 L 50.25 -5.04 Q 50.25 -7.12 51.4 -8.84 L 51.4 -8.84 Q 52.7 -10.82 55.02 -11.58 L 55.02 -11.58 Q 56.3 -12 57.46 -12 Q 58.61 -12 59.41 -11.84 L 59.41 -11.84 Q 59.53 -11.3 59.56 -10.86 L 59.56 -10.86 Q 60.5 -11.5 61.46 -11.5 L 61.46 -11.5 Q 62.83 -11.5 62.83 -10.08 L 62.83 -10.08 Q 62.84 -10.05 62.84 -10.01 L 62.84 -10.01 Q 62.84 -8.62 62.66 -7.17 L 62.66 -7.17 Q 62.48 -5.68 62.1 -3.98 Q 61.72 -2.28 61.01 -0.77 Q 60.29 0.74 59.35 1.99 Q 58.4 3.24 56.98 3.97 Q 55.56 4.7 53.99 4.7 Q 52.42 4.7 51.47 4.11 Q 50.52 3.52 50.52 2.52 Q 50.52 1.52 51.34 0.42 L 51.34 0.42 Q 52.26 1.78 54.1 1.78 L 54.1 1.78 Q 55.3 1.78 56.33 0.75 Q 57.35 -0.28 57.7 -2.26 L 57.7 -2.26 L 57.5 -2.36 Q 56.08 -0.28 53.86 -0.28 L 53.86 -0.28 Q 52.18 -0.28 51.22 -1.58 Q 50.25 -2.88 50.25 -5.04 Z M 54.03 -5.6 L 54.03 -5.6 Q 54.03 -4.58 54.6 -3.95 Q 55.18 -3.32 56.02 -3.32 L 56.02 -3.32 Q 57.16 -3.32 58.06 -4.4 L 58.06 -4.4 Q 58.4 -6.18 58.94 -10.02 L 58.94 -10.02 Q 56.7 -10.02 55.37 -8.72 Q 54.03 -7.41 54.03 -5.6 Z M 65.49 -0.12 Q 64.93 -0.74 64.93 -1.76 Q 64.93 -2.78 65.34 -5.08 Q 65.75 -7.38 66.19 -9.28 L 66.19 -9.28 L 65.15 -10.88 Q 67.13 -12 68.81 -12 Q 70.49 -12 70.49 -10.48 L 70.49 -10.48 Q 70.49 -9.48 70.03 -8.44 L 70.03 -8.44 L 70.22 -8.34 Q 72.36 -12 75.66 -12 L 75.66 -12 Q 78.09 -12 78.09 -9.58 L 78.09 -9.58 Q 78.09 -8.54 77.5 -6.06 Q 76.9 -3.58 76.9 -2.32 Q 76.9 -1.06 77.32 -0.48 L 77.32 -0.48 Q 76.26 0.5 75.09 0.5 L 75.09 0.5 Q 72.79 0.5 72.79 -1.96 L 72.79 -1.96 Q 72.79 -2.9 73.39 -5.1 Q 73.98 -7.3 73.98 -7.96 L 73.98 -7.96 Q 73.98 -8.86 73.31 -8.86 L 73.31 -8.86 Q 72.75 -8.86 72.03 -8.37 Q 71.31 -7.88 70.64 -7.05 Q 69.97 -6.22 69.51 -4.95 Q 69.05 -3.68 69.05 -2.37 Q 69.05 -1.06 69.47 -0.48 L 69.47 -0.48 Q 68.41 0.5 67.23 0.5 Q 66.04 0.5 65.49 -0.12 Z M 85.48 -11.14 L 85.48 -11.14 Q 86.42 -12 87.84 -12 L 87.84 -12 Q 88.62 -12 89.2 -11.59 Q 89.79 -11.18 90.13 -10.51 Q 90.48 -9.84 90.7 -8.78 L 90.7 -8.78 Q 91.04 -7.02 91.04 -4.02 L 91.04 -4.02 Q 91.04 -3.28 90.98 -2.28 L 90.98 -2.28 L 92.14 -2.28 Q 94.2 -7.83 94.2 -9.86 L 94.2 -9.86 Q 94.2 -10.55 93.9 -11.14 L 93.9 -11.14 Q 95.29 -12 96.34 -12 L 96.34 -12 Q 98.28 -12 98.28 -9.76 L 98.28 -9.76 Q 98.28 -7.98 96.64 -3.5 L 96.64 -3.5 Q 96.34 -2.68 96.3 -2.54 L 96.3 -2.54 Q 93.76 4.7 89.08 4.7 L 89.08 4.7 Q 87.67 4.7 86.74 4.09 Q 85.82 3.48 85.82 2.49 Q 85.82 1.5 86.56 0.42 L 86.56 0.42 Q 87.52 1.78 88.96 1.78 L 88.96 1.78 Q 89.79 1.78 90.49 1.24 Q 91.2 0.7 91.62 -0.4 L 91.62 -0.4 Q 90.68 -0.06 89.74 -0.06 Q 88.8 -0.06 88.16 -0.62 Q 87.52 -1.18 87.42 -2.14 Q 87.32 -3.1 87.24 -4.93 Q 87.16 -6.76 87.08 -7.52 L 87.08 -7.52 Q 86.82 -10.06 85.48 -11.14 Z M 99.78 -4.76 L 99.78 -4.76 Q 99.78 -7.98 101.85 -9.99 Q 103.92 -12 107.12 -12 L 107.12 -12 Q 107.84 -12 108.55 -11.84 L 108.55 -11.84 Q 108.78 -11.17 108.8 -10.34 L 108.8 -10.34 Q 109.22 -10.48 109.64 -10.48 L 109.64 -10.48 Q 110.76 -10.48 111.57 -9.58 Q 112.37 -8.68 112.37 -6.97 Q 112.37 -5.26 111.78 -3.81 Q 111.18 -2.36 110.2 -1.44 Q 109.22 -0.52 107.98 -0.01 Q 106.74 0.5 105.44 0.5 L 105.44 0.5 Q 102.82 0.5 101.3 -0.94 Q 99.78 -2.38 99.78 -4.76 Z M 104.68 -7.94 Q 103.82 -6.58 103.82 -5.14 Q 103.82 -3.7 104.41 -2.83 Q 105 -1.96 105.92 -1.96 L 105.92 -1.96 Q 107.96 -1.96 108.8 -4.62 L 108.8 -4.62 Q 107.18 -5.62 107.18 -7.7 L 107.18 -7.7 Q 107.18 -8.25 107.45 -8.96 Q 107.71 -9.66 108.32 -10.08 L 108.32 -10.08 Q 105.68 -9.52 104.68 -7.94 L 104.68 -7.94 Z M 115.18 -0.36 Q 114.47 -1.22 114.47 -2.53 Q 114.47 -3.84 114.91 -6.12 Q 115.35 -8.4 115.35 -9.42 Q 115.35 -10.44 114.93 -11.02 L 114.93 -11.02 Q 116.79 -11.99 118.08 -12 L 118.08 -12 Q 118.9 -12 119.27 -11.67 Q 119.64 -11.34 119.64 -10.6 Q 119.64 -9.86 119.03 -6.97 Q 118.42 -4.08 118.42 -3.4 Q 118.42 -2.72 118.79 -2.33 Q 119.17 -1.94 119.79 -1.94 Q 120.41 -1.94 121.11 -2.43 Q 121.82 -2.92 122.26 -3.82 L 122.26 -3.82 Q 122.54 -5.44 123.35 -8.94 L 123.35 -8.94 L 122.16 -10.54 Q 124.18 -12 126 -12 L 126 -12 Q 126.89 -12 127.29 -11.67 Q 127.68 -11.34 127.68 -10.67 Q 127.68 -10 126.94 -6.84 Q 126.21 -3.68 126.21 -2.35 Q 126.21 -1.02 126.84 -0.48 L 126.84 -0.48 Q 125.71 0.5 124.48 0.5 Q 123.25 0.5 122.71 -0.04 Q 122.18 -0.58 122.18 -1.46 L 122.18 -1.46 L 121.97 -1.56 Q 121.31 -0.61 120.14 -0.05 Q 118.97 0.5 117.64 0.5 L 117.64 0.5 Q 115.88 0.5 115.18 -0.36 Z M 129.55 -1.98 L 129.55 -1.98 Q 129.55 -2.78 129.96 -5.08 Q 130.37 -7.38 130.81 -9.28 L 130.81 -9.28 L 129.77 -10.88 Q 132.27 -12 133.28 -12 Q 134.29 -12 134.29 -10.72 L 134.29 -10.72 Q 134.29 -10.02 133.62 -7.8 L 133.62 -7.8 L 133.83 -7.7 Q 135.26 -11.99 137.41 -12 L 137.41 -12 Q 138.39 -12 138.91 -11.4 Q 139.42 -10.8 139.42 -10.06 L 139.42 -10.06 Q 139.42 -8.96 138.6 -8.18 Q 137.78 -7.4 136.14 -7.4 L 136.14 -7.4 Q 133.67 -7.4 133.67 -2.34 L 133.67 -2.34 Q 133.67 -1.06 134.09 -0.48 L 134.09 -0.48 Q 132.85 0.5 131.81 0.5 L 131.81 0.5 Q 129.55 0.5 129.55 -1.98 Z M 145.92 -4.2 L 145.92 -4.2 Q 145.92 -6.88 147.8 -9.08 L 147.8 -9.08 Q 148.72 -10.17 150.26 -10.83 Q 151.8 -11.5 153.7 -11.5 L 153.7 -11.5 Q 154.06 -11.5 154.98 -11.42 L 154.98 -11.42 Q 155.02 -11.84 155.16 -12.44 L 155.16 -12.44 L 154.04 -14.04 Q 156.52 -15.5 157.96 -15.5 L 157.96 -15.5 Q 157.97 -15.5 157.98 -15.5 L 157.98 -15.5 Q 158.8 -15.5 159.14 -15.17 Q 159.48 -14.84 159.48 -13.93 Q 159.48 -13.02 158.59 -8.8 Q 157.7 -4.58 157.7 -2.81 Q 157.7 -1.04 158.32 -0.48 L 158.32 -0.48 Q 157.2 0.5 155.99 0.5 Q 154.78 0.5 154.22 -0.11 Q 153.66 -0.72 153.66 -1.46 L 153.66 -1.46 L 153.46 -1.56 Q 151.89 0.5 149.74 0.5 L 149.74 0.5 Q 148.13 0.5 147.03 -0.77 Q 145.92 -2.04 145.92 -4.2 Z M 149.68 -4.96 L 149.68 -4.96 Q 149.68 -3.82 150.27 -3.16 Q 150.86 -2.5 151.74 -2.5 L 151.74 -2.5 Q 152.88 -2.5 153.82 -3.58 L 153.82 -3.58 Q 154.14 -7.15 154.72 -9.74 L 154.72 -9.74 Q 152.41 -9.74 151.04 -8.26 Q 149.68 -6.78 149.68 -4.96 Z M 161.07 -1.98 L 161.07 -1.98 Q 161.07 -2.78 161.48 -5.08 Q 161.89 -7.38 162.33 -9.28 L 162.33 -9.28 L 161.29 -10.88 Q 163.79 -12 164.8 -12 Q 165.81 -12 165.81 -10.72 L 165.81 -10.72 Q 165.81 -10.02 165.15 -7.8 L 165.15 -7.8 L 165.35 -7.7 Q 166.79 -11.99 168.94 -12 L 168.94 -12 Q 169.91 -12 170.43 -11.4 Q 170.95 -10.8 170.95 -10.06 L 170.95 -10.06 Q 170.95 -8.96 170.13 -8.18 Q 169.31 -7.4 167.67 -7.4 L 167.67 -7.4 Q 165.2 -7.4 165.2 -2.34 L 165.2 -2.34 Q 165.2 -1.06 165.62 -0.48 L 165.62 -0.48 Q 164.38 0.5 163.33 0.5 L 163.33 0.5 Q 161.07 0.5 161.07 -1.98 Z M 171.45 -4.76 L 171.45 -4.76 Q 171.45 -7.98 173.66 -9.99 Q 175.87 -12 179.21 -12 L 179.21 -12 Q 181.06 -12 182.03 -11.17 Q 182.99 -10.34 182.99 -8.98 L 182.99 -8.98 Q 182.99 -7.13 181.18 -5.89 Q 179.37 -4.66 175.59 -4.64 L 175.59 -4.64 Q 175.64 -3.36 176.17 -2.63 Q 176.69 -1.9 177.47 -1.9 Q 178.24 -1.9 178.81 -2.42 Q 179.38 -2.94 179.38 -4.12 L 179.38 -4.12 Q 182.3 -4.12 182.3 -2.74 L 182.3 -2.74 Q 182.3 -1.56 180.86 -0.53 Q 179.42 0.5 177.17 0.5 L 177.17 0.5 Q 174.42 0.5 172.93 -0.92 Q 171.45 -2.34 171.45 -4.76 Z M 175.77 -6.24 L 175.77 -6.24 Q 177.77 -6.4 178.78 -7.15 Q 179.79 -7.9 179.79 -8.74 L 179.79 -8.74 Q 179.79 -9.14 179.54 -9.4 Q 179.29 -9.66 178.87 -9.66 L 178.87 -9.66 Q 177.85 -9.66 177 -8.64 Q 176.14 -7.62 175.77 -6.24 Z M 184.48 -4.2 L 184.48 -4.2 Q 184.48 -7.52 186.71 -9.76 Q 188.95 -12 192.27 -12 L 192.27 -12 Q 193.13 -12 193.84 -11.84 L 193.84 -11.84 Q 193.96 -11.28 193.98 -10.86 L 193.98 -10.86 Q 194.98 -11.5 196.04 -11.5 L 196.04 -11.5 Q 197.5 -11.5 197.5 -9.94 L 197.5 -9.94 Q 197.5 -9.37 196.87 -6.54 Q 196.24 -3.72 196.24 -2.36 Q 196.24 -1 196.87 -0.48 L 196.87 -0.48 Q 195.74 0.5 194.53 0.5 Q 193.32 0.5 192.77 -0.22 Q 192.22 -0.94 192.22 -2.46 L 192.22 -2.46 L 192.02 -2.56 Q 191.48 -1.12 190.47 -0.31 Q 189.46 0.5 188.22 0.5 L 188.22 0.5 Q 186.52 0.5 185.5 -0.78 Q 184.48 -2.06 184.48 -4.2 Z M 188.24 -5.18 L 188.24 -5.18 Q 188.24 -4.2 188.65 -3.67 Q 189.06 -3.14 189.82 -3.14 Q 190.59 -3.14 191.32 -3.7 Q 192.06 -4.26 192.56 -5.24 L 192.56 -5.24 Q 192.73 -7.27 193.34 -10.02 L 193.34 -10.02 Q 191.32 -10.02 189.78 -8.56 Q 188.24 -7.1 188.24 -5.18 Z M 199.5 -1.96 Q 199.5 -2.78 199.91 -5.08 Q 200.32 -7.38 200.76 -9.28 L 200.76 -9.28 L 199.72 -10.88 Q 201.7 -12 203.38 -12 Q 205.06 -12 205.06 -10.48 L 205.06 -10.48 Q 205.06 -9.48 204.6 -8.44 L 204.6 -8.44 L 204.79 -8.34 Q 206.93 -12 210.04 -12 L 210.04 -12 Q 211.16 -12 211.81 -11.44 Q 212.46 -10.88 212.46 -9.76 L 212.46 -9.76 Q 212.45 -9.16 212.26 -8.44 L 212.26 -8.44 L 212.46 -8.34 Q 214.6 -12 217.7 -12 L 217.7 -12 Q 220.12 -12 220.12 -9.58 L 220.12 -9.58 Q 220.12 -8.54 219.53 -6.06 Q 218.94 -3.58 218.94 -2.32 Q 218.94 -1.06 219.36 -0.48 L 219.36 -0.48 Q 218.29 0.5 217.12 0.5 L 217.12 0.5 Q 214.81 0.5 214.81 -1.98 L 214.81 -1.98 Q 214.81 -2.9 215.42 -5.1 Q 216.02 -7.3 216.02 -7.96 L 216.02 -7.96 Q 216.02 -8.86 215.34 -8.86 L 215.34 -8.86 Q 214.79 -8.86 214.09 -8.37 Q 213.4 -7.88 212.77 -7.05 Q 212.14 -6.22 211.71 -4.95 Q 211.28 -3.68 211.28 -2.37 Q 211.28 -1.06 211.7 -0.48 L 211.7 -0.48 Q 210.63 0.5 209.46 0.5 L 209.46 0.5 Q 207.16 0.5 207.16 -1.98 L 207.16 -1.98 Q 207.16 -2.9 207.76 -5.1 Q 208.36 -7.3 208.36 -7.96 L 208.36 -7.96 Q 208.36 -8.86 207.68 -8.86 L 207.68 -8.86 Q 207.12 -8.86 206.43 -8.37 Q 205.74 -7.88 205.11 -7.05 Q 204.48 -6.22 204.05 -4.95 Q 203.62 -3.68 203.62 -2.37 Q 203.62 -1.06 204.04 -0.48 L 204.04 -0.48 Q 202.98 0.5 201.8 0.5 L 201.8 0.5 Q 199.5 0.5 199.5 -1.96 L 199.5 -1.96 Z M 221.82 -1.68 L 221.82 -1.68 Q 221.82 -2.78 222.79 -3.88 L 222.79 -3.88 Q 223.29 -3.17 224.3 -2.68 Q 225.31 -2.18 226.28 -2.18 L 226.28 -2.18 Q 227.94 -2.18 228.27 -3.64 L 228.27 -3.64 Q 225.23 -4 223.88 -5 Q 222.52 -6 222.52 -7.82 L 222.52 -7.82 Q 222.52 -9.26 223.47 -10.24 Q 224.41 -11.22 225.83 -11.61 Q 227.24 -12 229 -12 Q 230.77 -12 231.92 -11.33 Q 233.08 -10.66 233.08 -9.7 Q 233.08 -8.74 232.41 -8.22 Q 231.74 -7.7 230.95 -7.7 Q 230.16 -7.7 229.51 -8.12 Q 228.86 -8.54 228.5 -9.34 L 228.5 -9.34 Q 227.75 -9.11 227.31 -8.71 Q 226.88 -8.3 226.53 -7.54 L 226.53 -7.54 Q 229.91 -7.04 231.29 -6.1 Q 232.68 -5.16 232.68 -3.42 L 232.68 -3.42 Q 232.68 -2.31 232.06 -1.51 Q 231.44 -0.7 230.5 -0.28 L 230.5 -0.28 Q 228.66 0.5 226.88 0.5 L 226.88 0.5 Q 221.82 0.5 221.82 -1.68 Z" stroke-linecap="round" />
</g>
<g transform="matrix(1.5952721806646044 0 0 1.5952721806646044 640.0153846153846 368.12266106395924)" style="" id="logo-logo"  >
	<g transform="matrix(0.19820802953453806 0 0 -0.1982080295345381 3.827555910039848 54.99890254950287)"  >
<path style="stroke: none; stroke-width: 1; stroke-dasharray: none; stroke-linecap: butt; stroke-dashoffset: 0; stroke-linejoin: miter; stroke-miterlimit: 4; fill: rgb(58,71,106); fill-rule: nonzero; opacity: 1;"  paint-order="stroke"  transform=" translate(-1640.805, -1221.5555000000004)" d="m 1294.26 1595.65 c 168.44 -62.5 305.58 -346.33 387.94 -354.37 c 82.33 -8 129.89 150.92 239.06 187.76 c -31.07 -91.33 -63.23 -189.06 -122.11 -273.96 c -50.07 -72.25 -7.64 -163.432 46.45 -198.67 c 54.13 -35.238 116.91 -59.269 141.75 -108.949 h -613.59 c 23.1 51.258 99.19 92.898 145.33 124.961 c 62.19 43.278 36.17 147.388 1.27 222.718 c -27.16 58.63 -94.01 232.3 -226.1 400.51" stroke-linecap="round" />
</g>
	<g transform="matrix(0.19820802953453806 0 0 -0.1982080295345381 19.796845737295087 -0.8936118458906037)"  >
<path style="stroke: none; stroke-width: 1; stroke-dasharray: none; stroke-linecap: butt; stroke-dashoffset: 0; stroke-linejoin: miter; stroke-miterlimit: 4; fill: rgb(58,71,106); fill-rule: nonzero; opacity: 1;"  paint-order="stroke"  transform=" translate(-1721.605, -1508.335)" d="m 1422.41 1595.65 c 80.38 -43.25 208.75 -264.35 261.61 -264.35 c 60.89 0 227.85 273.97 336.78 354.07 c -127.26 -11.21 -279.46 -190.45 -336.98 -192.25 c -51.15 -1.62 -180.29 129.76 -261.41 102.53" stroke-linecap="round" />
</g>
	<g transform="matrix(0.19820802953453806 0 0 -0.1982080295345381 10.814120209464022 -32.832191500401166)"  >
<path style="stroke: none; stroke-width: 1; stroke-dasharray: none; stroke-linecap: butt; stroke-dashoffset: 0; stroke-linejoin: miter; stroke-miterlimit: 4; fill: rgb(58,71,106); fill-rule: nonzero; opacity: 1;"  paint-order="stroke"  transform=" translate(-1681.345, -1662.9550000000004)" d="m 1769.48 1662.95 c 0 -48.67 -39.48 -88.13 -88.15 -88.13 c -48.64 0 -88.12 39.46 -88.12 88.13 c 0 48.67 39.48 88.14 88.12 88.14 c 48.67 0 88.15 -39.47 88.15 -88.14" stroke-linecap="round" />
</g>
	<g transform="matrix(0.19820802953453806 0 0 -0.1982080295345381 -69.0323289268124 24.058403509195756)"  >
<path style="stroke: none; stroke-width: 1; stroke-dasharray: none; stroke-linecap: butt; stroke-dashoffset: 0; stroke-linejoin: miter; stroke-miterlimit: 4; fill: rgb(247,186,11); fill-rule: nonzero; opacity: 1;"  paint-order="stroke"  transform=" translate(-1278.6599999999999, -1374.78808711512)" d="m 1388.05 1382.41 c -2.51 5.89 -38.73 14.42 -42.16 18.88 c -40.17 53.08 -137.78 11.18 -176.62 -39.38 c 51.6 -30.97 138.52 -71.61 186.03 8.43 c 0 0 -53.47 6.2 -90.61 3.99 c 0 0 69.91 14.92 123.36 8.08" stroke-linecap="round" />
</g>
	<g transform="matrix(0.19820802953453806 0 0 -0.1982080295345381 -54.06111971376055 49.010418864282144)"  >
<path style="stroke: none; stroke-width: 1; stroke-dasharray: none; stroke-linecap: butt; stroke-dashoffset: 0; stroke-linejoin: miter; stroke-miterlimit: 4; fill: rgb(216,38,88); fill-rule: nonzero; opacity: 1;"  paint-order="stroke"  transform=" translate(-1346.31, -1250.029357715142)" d="m 1433.72 1291.48 c -4 4.04 -36.82 -0.61 -41.11 1.98 c -50.47 30.99 -117.86 -35.35 -133.71 -89.88 c 52.83 -8.97 138.07 -14.52 151.55 67.27 c 0 0 -46.35 -12.23 -76.41 -26.03 c 0 0 53.13 35 99.68 46.66" stroke-linecap="round" />
</g>
	<g transform="matrix(0.19820802953453806 0 0 -0.1982080295345381 -86.99777998247455 49.010418864282144)"  >
<path style="stroke: none; stroke-width: 1; stroke-dasharray: none; stroke-linecap: butt; stroke-dashoffset: 0; stroke-linejoin: miter; stroke-miterlimit: 4; fill: rgb(162,207,30); fill-rule: nonzero; opacity: 1;"  paint-order="stroke"  transform=" translate(-1185.87, -1249.663437093604)" d="m 1256.04 1282.96 c -3.2 3.25 -29.55 -0.52 -32.97 1.57 c -40.54 24.88 -94.65 -28.36 -107.37 -72.16 c 42.43 -7.2 110.87 -11.65 121.66 54 c 0 0 -37.21 -9.81 -61.33 -20.89 c 0 0 42.66 28.11 80.01 37.48" stroke-linecap="round" />
</g>
	<g transform="matrix(0.19820802953453806 0 0 -0.1982080295345381 -104.96323103813677 19.068000438178473)"  >
<path style="stroke: none; stroke-width: 1; stroke-dasharray: none; stroke-linecap: butt; stroke-dashoffset: 0; stroke-linejoin: miter; stroke-miterlimit: 4; fill: rgb(80,173,224); fill-rule: nonzero; opacity: 1;"  paint-order="stroke"  transform=" translate(-1098.175, -1400.0001333531209)" d="m 1176.86 1425.76 c -2.98 3.85 -31.32 3.23 -34.72 5.86 c -39.63 31.5 -103.62 -17.96 -122.65 -62.62 c 43.94 -13.01 115.72 -26.42 135.49 41.61 c 0 0 -40.59 -5.65 -67.5 -14.24 c 0 0 48.65 24.25 89.38 29.39" stroke-linecap="round" />
</g>
	<g transform="matrix(0.19820802953453806 0 0 -0.1982080295345381 -122.92868209379895 -9.876337373721697)"  >
<path style="stroke: none; stroke-width: 1; stroke-dasharray: none; stroke-linecap: butt; stroke-dashoffset: 0; stroke-linejoin: miter; stroke-miterlimit: 4; fill: rgb(216,38,88); fill-rule: nonzero; opacity: 1;"  paint-order="stroke"  transform=" translate(-1003.5360000000001, -1548.117076767634)" d="m 1107.67 1562.14 c -2.79 5.48 -38.05 11.28 -41.65 15.34 c -41.85 48.23 -132.657 1.81 -166.618 -49.13 c 51.481 -26.35 137.318 -59.63 177.608 20.08 c 0 0 -51.6 2.45 -86.971 -1.97 c 0 0 65.951 18.75 117.631 15.68" stroke-linecap="round" />
</g>
	<g transform="matrix(0.19820802953453806 0 0 -0.1982080295345381 -104.96323103813677 -66.76693238331862)"  >
<path style="stroke: none; stroke-width: 1; stroke-dasharray: none; stroke-linecap: butt; stroke-dashoffset: 0; stroke-linejoin: miter; stroke-miterlimit: 4; fill: rgb(80,173,224); fill-rule: nonzero; opacity: 1;"  paint-order="stroke"  transform=" translate(-1094.5037704329118, -1834.358882902106)" d="m 1198.53 1761.02 c 2.07 7.01 -23.66 41.21 -23.34 47.68 c 3.62 76.31 -113.33 111.18 -184.831 95.19 c 22.771 -65.37 69.571 -165.16 170.311 -129.45 c 0 0 -42.65 44.8 -76.89 70.19 c 0 0 72.58 -38.24 114.75 -83.61" stroke-linecap="round" />
</g>
	<g transform="matrix(0.19820802953453806 0 0 -0.1982080295345381 -84.00353813986419 -0.8936118458906037)"  >
<path style="stroke: none; stroke-width: 1; stroke-dasharray: none; stroke-linecap: butt; stroke-dashoffset: 0; stroke-linejoin: miter; stroke-miterlimit: 4; fill: rgb(64,182,173); fill-rule: nonzero; opacity: 1;"  paint-order="stroke"  transform=" translate(-1200.4450000000002, -1502.4997708579424)" d="m 1304.27 1489.44 c -1.18 5.96 -33.27 20.91 -35.59 25.74 c -27.05 57.22 -126.07 37.18 -172.06 -2.35 c 42.05 -38.85 115.04 -93.55 174.8 -28.28 c 0 0 -48.57 16.15 -83.56 21.32 c 0 0 67.98 0.33 116.41 -16.43" stroke-linecap="round" />
</g>
	<g transform="matrix(0.19820802953453806 0 0 -0.1982080295345381 -100.97090858132293 -33.83027211460464)"  >
<path style="stroke: none; stroke-width: 1; stroke-dasharray: none; stroke-linecap: butt; stroke-dashoffset: 0; stroke-linejoin: miter; stroke-miterlimit: 4; fill: rgb(235,79,31); fill-rule: nonzero; opacity: 1;"  paint-order="stroke"  transform=" translate(-1116.3870000000002, -1666.8473667252274)" d="m 1253.45 1623.67 c -0.09 8.36 -39.63 36.52 -41.55 43.6 c -22.2 83.88 -160.69 81.6 -232.576 39.8 c 46.966 -62.87 131.766 -154.91 228.636 -81.79 c 0 0 -61.46 33.9 -107.34 49.6 c 0 0 91.72 -16.56 152.83 -51.21" stroke-linecap="round" />
</g>
	<g transform="matrix(0.19820802953453806 0 0 -0.1982080295345381 -65.04000646999856 -53.791884398673716)"  >
<path style="stroke: none; stroke-width: 1; stroke-dasharray: none; stroke-linecap: butt; stroke-dashoffset: 0; stroke-linejoin: miter; stroke-miterlimit: 4; fill: rgb(247,186,11); fill-rule: nonzero; opacity: 1;"  paint-order="stroke"  transform=" translate(-1293.8623099280792, -1769.3449999999998)" d="m 1319.77 1644.8 c -7.34 0.81 -28.69 38.17 -34.72 40.5 c -72.01 27.04 -57.69 148.92 -14.45 208.59 c 51.26 -47.03 124.85 -129.94 51.81 -208.86 c 0 0 -24.43 57.2 -34.21 99.07 c 0 0 6.45 -82.36 31.57 -139.3" stroke-linecap="round" />
</g>
	<g transform="matrix(0.19820802953453806 0 0 -0.1982080295345381 -46.07647480013293 -89.72278650999809)"  >
<path style="stroke: none; stroke-width: 1; stroke-dasharray: none; stroke-linecap: butt; stroke-dashoffset: 0; stroke-linejoin: miter; stroke-miterlimit: 4; fill: rgb(64,182,173); fill-rule: nonzero; opacity: 1;"  paint-order="stroke"  transform=" translate(-1395.1996858281773, -1944.015)" d="m 1378.54 1833.67 c -5.79 3.05 -11.33 40.65 -15.54 44.49 c -50.55 45.38 0.41 141.01 55.14 176.2 c 27.06 -55.13 60.95 -147 -24.52 -188.42 c 0 0 -1.7 54.9 3.72 92.46 c 0 0 -21.16 -69.81 -18.8 -124.73" stroke-linecap="round" />
</g>
	<g transform="matrix(0.19820802953453806 0 0 -0.1982080295345381 -19.12829821663962 -103.69591510884646)"  >
<path style="stroke: none; stroke-width: 1; stroke-dasharray: none; stroke-linecap: butt; stroke-dashoffset: 0; stroke-linejoin: miter; stroke-miterlimit: 4; fill: rgb(235,79,31); fill-rule: nonzero; opacity: 1;"  paint-order="stroke"  transform=" translate(-1531.6133215680643, -2019.13)" d="m 1496.78 1928.34 c -4.39 3.69 -2.02 36.97 -4.92 41.05 c -34.76 48.4 26.98 120.74 80.52 140.53 c 12.77 -52.3 24.48 -137.45 -56.57 -156.79 c 0 0 8.89 47.36 20.63 78.53 c 0 0 -31.33 -55.81 -39.66 -103.32" stroke-linecap="round" />
</g>
	<g transform="matrix(0.19820802953453806 0 0 -0.1982080295345381 10.814120209464022 -109.68439879406719)"  >
<path style="stroke: none; stroke-width: 1; stroke-dasharray: none; stroke-linecap: butt; stroke-dashoffset: 0; stroke-linejoin: miter; stroke-miterlimit: 4; fill: rgb(247,186,11); fill-rule: nonzero; opacity: 1;"  paint-order="stroke"  transform=" translate(-1681.34188243377, -2054.345)" d="m 1677.78 1956.15 c -5.37 2.05 -14.11 34.21 -18.21 37.13 c -48.76 34.22 -14.38 122.85 29.62 159.26 c 29.33 -45.16 68.49 -121.66 -1.62 -166.72 c 0 0 -7.25 47.66 -6.48 80.94 c 0 0 -11.12 -63.01 -3.31 -110.61" stroke-linecap="round" />
</g>
	<g transform="matrix(0.19820802953453806 0 0 -0.1982080295345381 -63.04384524159167 -105.69207633725335)"  >
<path style="stroke: none; stroke-width: 1; stroke-dasharray: none; stroke-linecap: butt; stroke-dashoffset: 0; stroke-linejoin: miter; stroke-miterlimit: 4; fill: rgb(80,173,224); fill-rule: nonzero; opacity: 1;"  paint-order="stroke"  transform=" translate(-1304.2698225010527, -2033.0499999999997)" d="m 1300.72 1934.86 c -5.37 2.05 -14.12 34.21 -18.21 37.11 c -48.77 34.24 -14.39 122.87 29.6 159.27 c 29.32 -45.17 68.51 -121.65 -1.63 -166.71 c 0 0 -7.22 47.67 -6.46 80.96 c 0 0 -11.11 -63.05 -3.3 -110.63" stroke-linecap="round" />
</g>
	<g transform="matrix(0.19820802953453806 0 0 -0.1982080295345381 -2.1609277751808804 -74.75157729694627)"  >
<path style="stroke: none; stroke-width: 1; stroke-dasharray: none; stroke-linecap: butt; stroke-dashoffset: 0; stroke-linejoin: miter; stroke-miterlimit: 4; fill: rgb(80,173,224); fill-rule: nonzero; opacity: 1;"  paint-order="stroke"  transform=" translate(-1609.0877139295371, -1871.1999999999998)" d="m 1592.42 1760.86 c -5.79 3.03 -11.31 40.62 -15.54 44.46 c -50.55 45.39 0.41 141.04 55.17 176.22 c 27.03 -55.13 60.94 -146.99 -24.52 -188.43 c 0 0 -1.72 54.92 3.69 92.46 c 0 0 -21.17 -69.81 -18.8 -124.71" stroke-linecap="round" />
</g>
	<g transform="matrix(0.19820802953453806 0 0 -0.1982080295345381 28.779571265126208 -74.75157729694627)"  >
<path style="stroke: none; stroke-width: 1; stroke-dasharray: none; stroke-linecap: butt; stroke-dashoffset: 0; stroke-linejoin: miter; stroke-miterlimit: 4; fill: rgb(64,182,173); fill-rule: nonzero; opacity: 1;"  paint-order="stroke"  transform=" translate(-1769.473306559385, -1871.19)" d="m 1788.88 1742.73 c 6.73 3.52 13.16 47.28 18.08 51.76 c 58.88 52.85 -0.46 164.21 -64.22 205.16 c -31.49 -64.18 -70.94 -171.14 28.54 -219.4 c 0 0 2 63.95 -4.29 107.66 c 0 0 24.64 -81.26 21.89 -145.18" stroke-linecap="round" />
</g>
	<g transform="matrix(0.19820802953453806 0 0 -0.1982080295345381 86.66824688892655 -84.7323834389808)"  >
<path style="stroke: none; stroke-width: 1; stroke-dasharray: none; stroke-linecap: butt; stroke-dashoffset: 0; stroke-linejoin: miter; stroke-miterlimit: 4; fill: rgb(235,79,31); fill-rule: nonzero; opacity: 1;"  paint-order="stroke"  transform=" translate(-2060.7542906870754, -1924.8999999999999)" d="m 2029.34 1816.75 c 6.54 0.2 27.93 31.7 33.42 33.33 c 65.38 18.87 61.17 127.34 27.14 182.97 c -48.4 -37.91 -119.08 -105.98 -60.09 -180.64 c 0 0 25.51 48.77 36.99 85 c 0 0 -11.36 -72.16 -37.46 -120.66" stroke-linecap="round" />
</g>
	<g transform="matrix(0.19820802953453806 0 0 -0.1982080295345381 113.61642347241985 -89.72278650999809)"  >
<path style="stroke: none; stroke-width: 1; stroke-dasharray: none; stroke-linecap: butt; stroke-dashoffset: 0; stroke-linejoin: miter; stroke-miterlimit: 4; fill: rgb(80,173,224); fill-rule: nonzero; opacity: 1;"  paint-order="stroke"  transform=" translate(-2196.3727612944467, -1947.6545603998268)" d="m 2137.61 1868.3 c 5.36 -1.82 32.5 17.52 37.48 17.13 c 59.29 -4.36 88.79 85.8 77.77 141.7 c -51.19 -16.34 -129.75 -50.64 -104.1 -129.75 c 0 0 35.74 32.22 56.14 58.44 c 0 0 -31.19 -55.72 -67.29 -87.52" stroke-linecap="round" />
</g>
	<g transform="matrix(0.19820802953453806 0 0 -0.1982080295345381 50.73734477760223 -99.70359265203263)"  >
<path style="stroke: none; stroke-width: 1; stroke-dasharray: none; stroke-linecap: butt; stroke-dashoffset: 0; stroke-linejoin: miter; stroke-miterlimit: 4; fill: rgb(216,38,88); fill-rule: nonzero; opacity: 1;"  paint-order="stroke"  transform=" translate(-1879.2283933755725, -1999.6399999999999)" d="m 1884.05 1887.68 c 6.11 2.36 15.82 39.14 20.45 42.49 c 55.35 39.47 15.41 140.32 -35.09 181.43 c -33.07 -51.76 -77.11 -139.35 3.28 -190.19 c 0 0 7.83 54.46 6.68 92.38 c 0 0 13.18 -71.76 4.68 -126.11" stroke-linecap="round" />
</g>
	<g transform="matrix(0.19820802953453806 0 0 -0.1982080295345381 71.69703767587475 -112.67864063667756)"  >
<path style="stroke: none; stroke-width: 1; stroke-dasharray: none; stroke-linecap: butt; stroke-dashoffset: 0; stroke-linejoin: miter; stroke-miterlimit: 4; fill: rgb(80,173,224); fill-rule: nonzero; opacity: 1;"  paint-order="stroke"  transform=" translate(-1987.7184856963454, -2064.39)" d="m 1974.71 1982.3 c 4.76 0.77 17.48 25.84 21.36 27.52 c 46.11 19.99 32.86 99.13 2.72 136.66 c -31.91 -32.33 -77.33 -88.81 -27.09 -138.02 c 0 0 14.13 38.16 19.16 65.79 c 0 0 -1.58 -53.97 -16.15 -91.95" stroke-linecap="round" />
</g>
	<g transform="matrix(0.19820802953453806 0 0 -0.1982080295345381 -84.00353813986419 -89.72278650999809)"  >
<path style="stroke: none; stroke-width: 1; stroke-dasharray: none; stroke-linecap: butt; stroke-dashoffset: 0; stroke-linejoin: miter; stroke-miterlimit: 4; fill: rgb(162,207,30); fill-rule: nonzero; opacity: 1;"  paint-order="stroke"  transform=" translate(-1200.8566129754809, -1947.67)" d="m 1207.08 1840.17 c -6.04 1.65 -19.08 35.71 -23.86 38.4 c -56.8 31.98 -29.03 132.22 14.91 176.6 c 36.87 -45.98 87.78 -124.98 16.37 -181.65 c 0 0 -13.07 51.1 -15.85 87.42 c 0 0 -5.23 -69.83 8.43 -120.77" stroke-linecap="round" />
</g>
	<g transform="matrix(0.19820802953453806 0 0 -0.1982080295345381 -31.105265587081078 -53.791884398673716)"  >
<path style="stroke: none; stroke-width: 1; stroke-dasharray: none; stroke-linecap: butt; stroke-dashoffset: 0; stroke-linejoin: miter; stroke-miterlimit: 4; fill: rgb(216,38,88); fill-rule: nonzero; opacity: 1;"  paint-order="stroke"  transform=" translate(-1468.8597701394638, -1770.9450000000002)" d="m 1419.6 1655.52 c -5.47 5 -0.93 47.77 -4.51 53.17 c -42.58 64.05 40.29 154.56 110.25 177.68 c 14.07 -68.11 25.34 -178.4 -80.06 -199.71 c 0 0 13.6 60.7 30.16 100.37 c 0 0 -42.93 -70.59 -55.84 -131.51" stroke-linecap="round" />
</g>
	<g transform="matrix(0.19820802953453806 0 0 -0.1982080295345381 56.72582846282296 -56.78612624128408)"  >
<path style="stroke: none; stroke-width: 1; stroke-dasharray: none; stroke-linecap: butt; stroke-dashoffset: 0; stroke-linejoin: miter; stroke-miterlimit: 4; fill: rgb(162,207,30); fill-rule: nonzero; opacity: 1;"  paint-order="stroke"  transform=" translate(-1913.4466434760402, -1785.3650000000002)" d="m 1864.19 1669.95 c -5.47 4.98 -0.94 47.76 -4.51 53.16 c -42.59 64.04 40.29 154.57 110.25 177.67 c 14.07 -68.1 25.33 -178.4 -80.07 -199.71 c 0 0 13.61 60.71 30.17 100.39 c 0 0 -42.93 -70.62 -55.84 -131.51" stroke-linecap="round" />
</g>
	<g transform="matrix(0.19820802953453806 0 0 -0.1982080295345381 100.64137548777495 -54.78996501287716)"  >
<path style="stroke: none; stroke-width: 1; stroke-dasharray: none; stroke-linecap: butt; stroke-dashoffset: 0; stroke-linejoin: miter; stroke-miterlimit: 4; fill: rgb(247,186,11); fill-rule: nonzero; opacity: 1;"  paint-order="stroke"  transform=" translate(-2128.571567709043, -1777.4633429343578)" d="m 2010.82 1728.26 c -0.55 7.42 32.13 35.33 33.26 41.72 c 13.14 75.78 135.54 84.5 202.25 53.18 c -36.62 -59.14 -104.29 -146.95 -195.47 -89.94 c 0 0 51.61 34.72 90.91 52.11 c 0 0 -79.7 -21.72 -130.95 -57.07" stroke-linecap="round" />
</g>
	<g transform="matrix(0.19820802953453806 0 0 -0.1982080295345381 100.64137548777495 -23.849465972570073)"  >
<path style="stroke: none; stroke-width: 1; stroke-dasharray: none; stroke-linecap: butt; stroke-dashoffset: 0; stroke-linejoin: miter; stroke-miterlimit: 4; fill: rgb(216,38,88); fill-rule: nonzero; opacity: 1;"  paint-order="stroke"  transform=" translate(-2132.96, -1621.023310497436)" d="m 2006.01 1617.68 c 2.22 7.11 42.83 21.13 46.23 26.64 c 39.97 65.7 157.08 28.98 207.67 -24.59 c -55.74 -41.6 -150.87 -98.52 -214.84 -12.09 c 0 0 60.75 13.4 103.69 15.19 c 0 0 -82.13 8.98 -142.75 -5.15" stroke-linecap="round" />
</g>
	<g transform="matrix(0.19820802953453806 0 0 -0.1982080295345381 85.6701662747231 -0.8936118458906037)"  >
<path style="stroke: none; stroke-width: 1; stroke-dasharray: none; stroke-linecap: butt; stroke-dashoffset: 0; stroke-linejoin: miter; stroke-miterlimit: 4; fill: rgb(235,79,31); fill-rule: nonzero; opacity: 1;"  paint-order="stroke"  transform=" translate(-2056.59, -1506.792755137763)" d="m 1963.21 1536.1 c 3.46 4.66 36.96 4.3 40.88 7.46 c 46.47 37.75 122.77 -19.85 145.88 -72.37 c -51.77 -15.93 -136.42 -32.77 -160.74 47.35 c 0 0 48.06 -6.06 80.01 -16 c 0 0 -57.86 28.08 -106.03 33.56" stroke-linecap="round" />
</g>
	<g transform="matrix(0.19820802953453806 0 0 -0.1982080295345381 77.68552136109548 30.046887194416485)"  >
<path style="stroke: none; stroke-width: 1; stroke-dasharray: none; stroke-linecap: butt; stroke-dashoffset: 0; stroke-linejoin: miter; stroke-miterlimit: 4; fill: rgb(247,186,11); fill-rule: nonzero; opacity: 1;"  paint-order="stroke"  transform=" translate(-2020.8100000000002, -1351.1839833777974)" d="m 1921.19 1319.7 c 0.05 6.1 28.76 26.59 30.16 31.74 c 16.12 61.01 116.78 59.38 169.08 29.05 c -34.16 -45.7 -95.71 -112.66 -166.19 -59.59 c 0 0 44.67 24.69 78.02 36.13 c 0 0 -66.69 -12.07 -111.07 -37.33" stroke-linecap="round" />
</g>
	<g transform="matrix(0.19820802953453806 0 0 -0.1982080295345381 107.62793978719913 48.01233825007867)"  >
<path style="stroke: none; stroke-width: 1; stroke-dasharray: none; stroke-linecap: butt; stroke-dashoffset: 0; stroke-linejoin: miter; stroke-miterlimit: 4; fill: rgb(216,38,88); fill-rule: nonzero; opacity: 1;"  paint-order="stroke"  transform=" translate(-2164.3299999999995, -1255.176703825467)" d="m 2080.93 1288.11 c 3.49 4.06 34.1 1.58 37.89 4.23 c 44.98 31.58 111.12 -25.99 128.91 -75.55 c -48.39 -11.29 -126.96 -21.32 -144.08 53.59 c 0 0 43.57 -8.61 72.2 -19.74 c 0 0 -51.19 29.38 -94.92 37.47" stroke-linecap="round" />
</g>
	<g transform="matrix(0.19820802953453806 0 0 -0.1982080295345381 116.61066531503025 24.058403509195756)"  >
<path style="stroke: none; stroke-width: 1; stroke-dasharray: none; stroke-linecap: butt; stroke-dashoffset: 0; stroke-linejoin: miter; stroke-miterlimit: 4; fill: rgb(80,173,224); fill-rule: nonzero; opacity: 1;"  paint-order="stroke"  transform=" translate(-2209.615, -1378.326739499124)" d="m 2128.56 1416.7 c 3.72 3.79 34.11 -0.55 38.07 1.88 c 46.82 28.78 109.32 -32.79 124.04 -83.34 c -49 -8.27 -128.03 -13.47 -140.55 62.36 c 0 0 42.98 -11.29 70.91 -24.13 c 0 0 -49.35 32.45 -92.47 43.23" stroke-linecap="round" />
</g>
	<g transform="matrix(0.19820802953453806 0 0 -0.1982080295345381 125.59339084286131 -41.81491702823226)"  >
<path style="stroke: none; stroke-width: 1; stroke-dasharray: none; stroke-linecap: butt; stroke-dashoffset: 0; stroke-linejoin: miter; stroke-miterlimit: 4; fill: rgb(64,182,173); fill-rule: nonzero; opacity: 1;"  paint-order="stroke"  transform=" translate(-2259.91, -1709.2804072305084)" d="m 2169.22 1705.76 c 1.51 5.13 30.43 15.49 32.81 19.49 c 27.91 47.31 111.92 22.13 148.57 -15.65 c -39.46 -30.25 -106.88 -71.79 -153.38 -10.62 c 0 0 43.27 10.1 73.95 11.8 c 0 0 -58.77 5.66 -101.95 -5.02" stroke-linecap="round" />
</g>
	<g transform="matrix(0.19820802953453806 0 0 -0.1982080295345381 124.59531022865787 -3.887853688500968)"  >
<path style="stroke: none; stroke-width: 1; stroke-dasharray: none; stroke-linecap: butt; stroke-dashoffset: 0; stroke-linejoin: miter; stroke-miterlimit: 4; fill: rgb(162,207,30); fill-rule: nonzero; opacity: 1;"  paint-order="stroke"  transform=" translate(-2247.7200000000003, -1520.1963146032954)" d="m 2156.01 1518.73 c 1.65 5.21 31.1 14.92 33.62 18.89 c 29.39 47.16 113.7 19.66 149.8 -19.48 c -40.61 -29.6 -109.81 -69.91 -155.3 -6.93 c 0 0 43.97 9.18 75.04 10.12 c 0 0 -59.27 7.15 -103.16 -2.6" stroke-linecap="round" />
</g>
	<g transform="matrix(0.19820802953453806 0 0 -0.1982080295345381 70.69895706167131 54.99890254950287)"  >
<path style="stroke: none; stroke-width: 1; stroke-dasharray: none; stroke-linecap: butt; stroke-dashoffset: 0; stroke-linejoin: miter; stroke-miterlimit: 4; fill: rgb(64,182,173); fill-rule: nonzero; opacity: 1;"  paint-order="stroke"  transform=" translate(-1981.8149999999998, -1220.188829993907)" d="m 1882.7 1248.88 c 3.52 4.98 38.78 5.37 42.87 8.8 c 48.08 40.83 129.8 -18.01 155.36 -72.78 c -54.17 -18 -142.91 -37.77 -170.41 46.09 c 0 0 50.74 -5.28 84.67 -14.96 c 0 0 -61.63 28.19 -112.49 32.85" stroke-linecap="round" />
</g>
</g>
</svg>